<svg width="512" height="512" viewBox="0 0 512 512" fill="none" xmlns="http://www.w3.org/2000/svg">
<g clip-path="url(#clip0_1_13)">
<path d="M21.3333 128H490.667C496.325 128 501.751 125.752 505.752 121.752C509.752 117.751 512 112.325 512 106.667C512 101.009 509.752 95.5825 505.752 91.5817C501.751 87.5809 496.325 85.3333 490.667 85.3333H21.3333C15.6754 85.3333 10.2492 87.5809 6.24839 91.5817C2.24761 95.5825 0 101.009 0 106.667C0 112.325 2.24761 117.751 6.24839 121.752C10.2492 125.752 15.6754 128 21.3333 128Z" fill="black"/>
<path d="M490.667 192H21.3333C15.6754 192 10.2492 194.248 6.24839 198.248C2.24761 202.249 0 207.675 0 213.333C0 218.991 2.24761 224.417 6.24839 228.418C10.2492 232.419 15.6754 234.667 21.3333 234.667H490.667C496.325 234.667 501.751 232.419 505.752 228.418C509.752 224.417 512 218.991 512 213.333C512 207.675 509.752 202.249 505.752 198.248C501.751 194.248 496.325 192 490.667 192Z" fill="black"/>
<path d="M490.667 405.333H21.3333C15.6754 405.333 10.2492 407.581 6.24839 411.582C2.24761 415.582 0 421.009 0 426.667C0 432.325 2.24761 437.751 6.24839 441.752C10.2492 445.752 15.6754 448 21.3333 448H490.667C496.325 448 501.751 445.752 505.752 441.752C509.752 437.751 512 432.325 512 426.667C512 421.009 509.752 415.582 505.752 411.582C501.751 407.581 496.325 405.333 490.667 405.333Z" fill="black"/>
<path d="M490.667 298.667H21.3333C15.6754 298.667 10.2492 300.914 6.24839 304.915C2.24761 308.916 0 314.342 0 320C0 325.658 2.24761 331.084 6.24839 335.085C10.2492 339.086 15.6754 341.333 21.3333 341.333H490.667C496.325 341.333 501.751 339.086 505.752 335.085C509.752 331.084 512 325.658 512 320C512 314.342 509.752 308.916 505.752 304.915C501.751 300.914 496.325 298.667 490.667 298.667Z" fill="black"/>
</g>
<defs>
<clipPath id="clip0_1_13">
<rect width="512" height="512" fill="white"/>
</clipPath>
</defs>
</svg>
