<svg width="512" height="512" viewBox="0 0 512 512" fill="none" xmlns="http://www.w3.org/2000/svg">
<g clip-path="url(#clip0_1_8)">
<path d="M21.3333 128H490.667C496.325 128 501.751 125.752 505.752 121.752C509.752 117.751 512 112.325 512 106.667C512 101.009 509.752 95.5825 505.752 91.5817C501.751 87.5809 496.325 85.3333 490.667 85.3333H21.3333C15.6754 85.3333 10.2492 87.5809 6.24839 91.5817C2.24761 95.5825 0 101.009 0 106.667C0 112.325 2.24761 117.751 6.24839 121.752C10.2492 125.752 15.6754 128 21.3333 128Z" fill="black"/>
<path d="M106.666 192C101.008 192 95.5822 194.248 91.5814 198.248C87.5806 202.249 85.333 207.675 85.333 213.333C85.333 218.991 87.5806 224.417 91.5814 228.418C95.5822 232.419 101.008 234.667 106.666 234.667H405.333C410.991 234.667 416.417 232.419 420.418 228.418C424.419 224.417 426.666 218.991 426.666 213.333C426.666 207.675 424.419 202.249 420.418 198.248C416.417 194.248 410.991 192 405.333 192H106.666Z" fill="black"/>
<path d="M405.333 405.333H106.666C101.008 405.333 95.5822 407.581 91.5814 411.582C87.5806 415.582 85.333 421.009 85.333 426.667C85.333 432.325 87.5806 437.751 91.5814 441.752C95.5822 445.752 101.008 448 106.666 448H405.333C410.991 448 416.417 445.752 420.418 441.752C424.419 437.751 426.666 432.325 426.666 426.667C426.666 421.009 424.419 415.582 420.418 411.582C416.417 407.581 410.991 405.333 405.333 405.333Z" fill="black"/>
<path d="M490.667 298.667H21.3333C15.6754 298.667 10.2492 300.914 6.24839 304.915C2.24761 308.916 0 314.342 0 320C0 325.658 2.24761 331.084 6.24839 335.085C10.2492 339.086 15.6754 341.333 21.3333 341.333H490.667C496.325 341.333 501.751 339.086 505.752 335.085C509.752 331.084 512 325.658 512 320C512 314.342 509.752 308.916 505.752 304.915C501.751 300.914 496.325 298.667 490.667 298.667Z" fill="black"/>
</g>
<defs>
<clipPath id="clip0_1_8">
<rect width="512" height="512" fill="white"/>
</clipPath>
</defs>
</svg>
