<svg width="512" height="512" viewBox="0 0 512 512" fill="none" xmlns="http://www.w3.org/2000/svg">
<g clip-path="url(#clip0_1_114)">
<path d="M490.667 128H21.3333C15.6754 128 10.2491 125.752 6.24836 121.752C2.24758 117.751 -1.52588e-05 112.325 -1.52588e-05 106.667C-1.52588e-05 101.009 2.24758 95.5825 6.24836 91.5817C10.2491 87.5809 15.6754 85.3333 21.3333 85.3333H490.667C496.325 85.3333 501.751 87.5809 505.752 91.5817C509.752 95.5825 512 101.009 512 106.667C512 112.325 509.752 117.751 505.752 121.752C501.751 125.752 496.325 128 490.667 128Z" fill="black"/>
<path d="M490.667 234.667H192C186.342 234.667 180.916 232.419 176.915 228.418C172.914 224.417 170.667 218.991 170.667 213.333C170.667 207.675 172.914 202.249 176.915 198.248C180.916 194.248 186.342 192 192 192H490.667C496.325 192 501.751 194.248 505.752 198.248C509.752 202.249 512 207.675 512 213.333C512 218.991 509.752 224.417 505.752 228.418C501.751 232.419 496.325 234.667 490.667 234.667Z" fill="black"/>
<path d="M192 405.333H490.667C496.325 405.333 501.751 407.581 505.752 411.582C509.752 415.582 512 421.009 512 426.667C512 432.325 509.752 437.751 505.752 441.752C501.751 445.752 496.325 448 490.667 448H192C186.342 448 180.916 445.752 176.915 441.752C172.914 437.751 170.667 432.325 170.667 426.667C170.667 421.009 172.914 415.582 176.915 411.582C180.916 407.581 186.342 405.333 192 405.333Z" fill="black"/>
<path d="M21.3333 298.667H490.667C496.325 298.667 501.751 300.914 505.752 304.915C509.752 308.916 512 314.342 512 320C512 325.658 509.752 331.084 505.752 335.085C501.751 339.086 496.325 341.333 490.667 341.333H21.3333C15.6754 341.333 10.2491 339.086 6.24836 335.085C2.24758 331.084 -1.52588e-05 325.658 -1.52588e-05 320C-1.52588e-05 314.342 2.24758 308.916 6.24836 304.915C10.2491 300.914 15.6754 298.667 21.3333 298.667Z" fill="black"/>
</g>
<defs>
<clipPath id="clip0_1_114">
<rect width="512" height="512" fill="white" transform="matrix(-1 0 0 1 512 0)"/>
</clipPath>
</defs>
</svg>
