<svg width="512" height="512" viewBox="0 0 512 512" fill="none" xmlns="http://www.w3.org/2000/svg">
<g clip-path="url(#clip0_1_3)">
<path d="M21.3333 128H490.667C496.325 128 501.751 125.752 505.752 121.752C509.752 117.751 512 112.325 512 106.667C512 101.009 509.752 95.5825 505.752 91.5817C501.751 87.5809 496.325 85.3333 490.667 85.3333H21.3333C15.6754 85.3333 10.2492 87.5809 6.24839 91.5817C2.24761 95.5825 0 101.009 0 106.667C0 112.325 2.24761 117.751 6.24839 121.752C10.2492 125.752 15.6754 128 21.3333 128Z" fill="black"/>
<path d="M21.3333 234.667H320C325.658 234.667 331.084 232.419 335.085 228.418C339.086 224.417 341.333 218.991 341.333 213.333C341.333 207.675 339.086 202.249 335.085 198.248C331.084 194.248 325.658 192 320 192H21.3333C15.6754 192 10.2492 194.248 6.24839 198.248C2.24761 202.249 0 207.675 0 213.333C0 218.991 2.24761 224.417 6.24839 228.418C10.2492 232.419 15.6754 234.667 21.3333 234.667Z" fill="black"/>
<path d="M320 405.333H21.3333C15.6754 405.333 10.2492 407.581 6.24839 411.582C2.24761 415.582 0 421.009 0 426.667C0 432.325 2.24761 437.751 6.24839 441.752C10.2492 445.752 15.6754 448 21.3333 448H320C325.658 448 331.084 445.752 335.085 441.752C339.086 437.751 341.333 432.325 341.333 426.667C341.333 421.009 339.086 415.582 335.085 411.582C331.084 407.581 325.658 405.333 320 405.333Z" fill="black"/>
<path d="M490.667 298.667H21.3333C15.6754 298.667 10.2492 300.914 6.24839 304.915C2.24761 308.916 0 314.342 0 320C0 325.658 2.24761 331.084 6.24839 335.085C10.2492 339.086 15.6754 341.333 21.3333 341.333H490.667C496.325 341.333 501.751 339.086 505.752 335.085C509.752 331.084 512 325.658 512 320C512 314.342 509.752 308.916 505.752 304.915C501.751 300.914 496.325 298.667 490.667 298.667Z" fill="black"/>
</g>
<defs>
<clipPath id="clip0_1_3">
<rect width="512" height="512" fill="white"/>
</clipPath>
</defs>
</svg>
