<svg width="512" height="512" viewBox="0 0 512 512" fill="none" xmlns="http://www.w3.org/2000/svg">
<g clip-path="url(#clip0_1_22)">
<path d="M0.000900905 106.667C0.000900905 94.8693 9.55823 85.3333 21.3342 85.3333H490.668C502.444 85.3333 512.001 94.8693 512.001 106.667C512.001 118.464 502.444 128 490.668 128H21.3342C9.55823 128 0.000900905 118.464 0.000900905 106.667ZM490.668 405.333H21.3342C9.55823 405.333 0.000900905 414.869 0.000900905 426.667C0.000900905 438.464 9.55823 448 21.3342 448H490.668C502.444 448 512.001 438.464 512.001 426.667C512.001 414.869 502.444 405.333 490.668 405.333ZM490.668 192H192.001C180.225 192 170.668 201.536 170.668 213.333C170.668 225.131 180.225 234.667 192.001 234.667H490.668C502.444 234.667 512.001 225.131 512.001 213.333C512.001 201.536 502.444 192 490.668 192ZM490.668 298.667H192.001C180.225 298.667 170.668 308.203 170.668 320C170.668 331.797 180.225 341.333 192.001 341.333H490.668C502.444 341.333 512.001 331.797 512.001 320C512.001 308.203 502.444 298.667 490.668 298.667ZM70.2516 346.56C83.6916 360 106.668 350.485 106.668 331.477V201.877C106.668 182.869 83.6916 173.355 70.2516 186.795L6.80623 250.219C-2.28177 259.307 -2.28177 274.027 6.80623 283.115L70.2516 346.56Z" fill="black"/>
</g>
<defs>
<clipPath id="clip0_1_22">
<rect width="512" height="512" fill="white"/>
</clipPath>
</defs>
</svg>
