<svg width="512" height="512" viewBox="0 0 512 512" fill="none" xmlns="http://www.w3.org/2000/svg">
<g clip-path="url(#clip0_1_87)">
<path d="M365.121 171.733C359.005 173.358 353.507 176.761 349.324 181.51C345.142 186.259 342.461 192.141 341.621 198.414C340.781 204.687 341.82 211.067 344.606 216.75C347.393 222.432 351.802 227.16 357.275 230.337C362.749 233.513 369.041 234.996 375.357 234.597C381.673 234.197 387.729 231.934 392.759 228.093C397.788 224.253 401.566 219.007 403.615 213.019C405.664 207.031 405.891 200.57 404.268 194.453C403.19 190.391 401.322 186.58 398.771 183.24C396.22 179.899 393.036 177.094 389.401 174.984C385.766 172.874 381.75 171.501 377.584 170.943C373.418 170.386 369.183 170.654 365.121 171.733Z" fill="black"/>
<path d="M258.453 107.733C252.337 109.358 246.839 112.761 242.656 117.51C238.474 122.259 235.793 128.141 234.953 134.414C234.113 140.687 235.152 147.067 237.939 152.75C240.725 158.432 245.134 163.16 250.607 166.337C256.081 169.513 262.373 170.996 268.689 170.597C275.005 170.197 281.061 167.934 286.091 164.093C291.12 160.253 294.898 155.007 296.947 149.019C298.996 143.031 299.223 136.57 297.6 130.453C296.522 126.391 294.654 122.58 292.103 119.24C289.552 115.899 286.368 113.094 282.733 110.984C279.098 108.874 275.082 107.501 270.916 106.943C266.75 106.386 262.515 106.654 258.453 107.733Z" fill="black"/>
<path d="M151.787 171.733C145.671 173.358 140.173 176.761 135.99 181.51C131.808 186.259 129.127 192.141 128.287 198.414C127.447 204.687 128.486 211.067 131.273 216.75C134.059 222.432 138.468 227.16 143.941 230.337C149.415 233.513 155.707 234.996 162.023 234.597C168.339 234.197 174.395 231.934 179.425 228.093C184.454 224.253 188.232 219.007 190.281 213.019C192.33 207.031 192.557 200.57 190.934 194.453C189.856 190.391 187.988 186.58 185.437 183.24C182.886 179.899 179.702 177.094 176.067 174.984C172.432 172.874 168.416 171.501 164.25 170.943C160.084 170.386 155.849 170.654 151.787 171.733Z" fill="black"/>
<path d="M151.787 299.733C145.671 301.358 140.173 304.761 135.99 309.51C131.808 314.259 129.127 320.141 128.287 326.414C127.447 332.687 128.486 339.067 131.273 344.75C134.059 350.432 138.468 355.16 143.941 358.337C149.415 361.514 155.707 362.996 162.023 362.597C168.339 362.197 174.395 359.934 179.425 356.093C184.454 352.253 188.232 347.007 190.281 341.019C192.33 335.031 192.557 328.57 190.934 322.453C189.856 318.391 187.988 314.58 185.437 311.24C182.886 307.899 179.702 305.094 176.067 302.984C172.432 300.874 168.416 299.501 164.25 298.943C160.084 298.386 155.849 298.654 151.787 299.733Z" fill="black"/>
<path d="M266.667 0.149314C232.321 -1.04496 198.085 4.68884 166.001 17.0089C133.918 29.3289 104.643 47.9829 79.9233 71.8588C55.2033 95.7347 35.5438 124.344 22.117 155.98C8.69011 187.616 1.77078 221.632 1.77148 256C1.85053 323.871 28.8473 388.94 76.8395 436.932C124.832 484.924 189.9 511.921 257.771 512C264.982 512 272.065 511.531 279.105 510.933C284.447 510.483 289.423 508.038 293.044 504.085C296.665 500.132 298.665 494.961 298.646 489.6L297.963 413.056C297.791 397.93 302.13 383.096 310.427 370.448C318.725 357.799 330.603 347.911 344.547 342.045C358.49 336.179 373.865 334.602 388.709 337.515C403.553 340.428 417.191 347.699 427.883 358.4L430.017 360.533C434.86 365.418 440.859 368.998 447.458 370.941C454.056 372.884 461.038 373.128 467.756 371.648C474.364 370.261 480.518 367.234 485.652 362.847C490.785 358.459 494.732 352.851 497.131 346.539C508.91 315.612 514.54 282.683 513.707 249.6C511.307 184.619 484.579 122.912 438.823 76.7089C393.067 30.5063 331.622 3.18105 266.667 0.149314ZM458.284 328.683L457.985 328.384C441.31 311.736 420.059 300.425 396.937 295.89C373.815 291.354 349.866 293.8 328.137 302.914C306.409 312.029 287.882 327.401 274.915 347.075C261.948 366.749 255.127 389.835 255.318 413.397L255.83 469.333C199.251 469.079 145.09 446.358 105.262 406.171C65.4342 365.983 43.2022 311.62 43.4568 255.04C43.7114 198.46 66.4317 144.299 106.62 104.472C146.807 64.644 201.171 42.412 257.75 42.6666C260.246 42.6666 262.763 42.6666 265.281 42.7946C319.39 45.3361 370.571 68.1118 408.68 106.608C446.789 145.105 469.046 196.513 471.041 250.645C471.745 277.175 467.439 303.6 458.348 328.533L458.284 328.683Z" fill="black"/>
</g>
<defs>
<clipPath id="clip0_1_87">
<rect width="512" height="512" fill="white"/>
</clipPath>
</defs>
</svg>
