<svg width="512" height="512" viewBox="0 0 512 512" fill="none" xmlns="http://www.w3.org/2000/svg">
<g clip-path="url(#clip0_1_24)">
<path d="M383.019 227.477C397.006 204.882 404.697 178.958 405.295 152.39C405.894 125.823 399.377 99.5783 386.422 76.3761C373.466 53.1739 354.542 33.8578 331.611 20.4289C308.679 6.99999 282.574 -0.0532089 256 -6.41015e-06H64V512H320C353.993 512.036 386.979 500.464 413.499 479.198C440.019 457.932 458.482 428.249 465.833 395.06C473.184 361.871 468.982 327.168 453.922 296.693C438.862 266.218 413.848 241.799 383.019 227.477ZM149.333 85.3333H256C272.974 85.3333 289.253 92.0762 301.255 104.078C313.257 116.081 320 132.359 320 149.333C320 166.307 313.257 182.586 301.255 194.588C289.253 206.591 272.974 213.333 256 213.333H149.333V85.3333ZM320 426.667H149.333V298.667H320C336.974 298.667 353.253 305.41 365.255 317.412C377.257 329.414 384 345.693 384 362.667C384 379.641 377.257 395.919 365.255 407.922C353.253 419.924 336.974 426.667 320 426.667Z" fill="black"/>
</g>
<defs>
<clipPath id="clip0_1_24">
<rect width="512" height="512" fill="white"/>
</clipPath>
</defs>
</svg>
