<svg width="512" height="512" viewBox="0 0 512 512" fill="none" xmlns="http://www.w3.org/2000/svg">
<g clip-path="url(#clip0_3_142)">
<path d="M451.306 69.8027L402.581 19.4773C396.597 13.3326 389.446 8.44459 381.548 5.09997C373.65 1.75536 365.163 0.0214705 356.586 0L255.999 0C231.419 0.0310299 207.601 8.53525 188.559 24.0793C169.518 39.6234 156.417 61.2568 151.466 85.3333H149.333C121.053 85.3672 93.9419 96.6162 73.9454 116.613C53.9488 136.609 42.6999 163.721 42.666 192V405.333C42.6999 433.613 53.9488 460.724 73.9454 480.721C93.9419 500.717 121.053 511.966 149.333 512H277.333C305.612 511.966 332.723 500.717 352.72 480.721C372.717 460.724 383.965 433.613 383.999 405.333V403.2C408.076 398.249 429.709 385.148 445.253 366.107C460.797 347.065 469.302 323.247 469.333 298.667V114.347C469.365 97.7156 462.896 81.7305 451.306 69.8027ZM277.333 469.333H149.333C132.359 469.333 116.08 462.591 104.078 450.588C92.0755 438.586 85.3327 422.307 85.3327 405.333V192C85.3327 175.026 92.0755 158.748 104.078 146.745C116.08 134.743 132.359 128 149.333 128V298.667C149.367 326.946 160.616 354.057 180.612 374.054C200.609 394.051 227.72 405.299 255.999 405.333H341.333C341.333 422.307 334.59 438.586 322.588 450.588C310.585 462.591 294.307 469.333 277.333 469.333ZM362.666 362.667H255.999C239.025 362.667 222.747 355.924 210.745 343.922C198.742 331.919 191.999 315.641 191.999 298.667V106.667C191.999 89.6928 198.742 73.4142 210.745 61.4118C222.747 49.4095 239.025 42.6667 255.999 42.6667H341.333V85.3333C341.333 96.6492 345.828 107.502 353.829 115.503C361.831 123.505 372.683 128 383.999 128H426.666V298.667C426.666 315.641 419.923 331.919 407.921 343.922C395.919 355.924 379.64 362.667 362.666 362.667Z" fill="black"/>
</g>
<defs>
<clipPath id="clip0_3_142">
<rect width="512" height="512" fill="white"/>
</clipPath>
</defs>
</svg>
