<svg width="512" height="512" viewBox="0 0 512 512" fill="none" xmlns="http://www.w3.org/2000/svg">
<g clip-path="url(#clip0_1_112)">
<path d="M405.333 298.667C387.775 298.782 370.525 303.293 355.157 311.787L283.733 226.133L443.029 34.9867C446.491 30.6239 448.109 25.0804 447.539 19.5404C446.968 14.0004 444.253 8.90331 439.975 5.33794C435.696 1.77257 430.193 0.0216681 424.641 0.459289C419.089 0.896911 413.928 3.48835 410.261 7.68L256 192.811L101.717 7.68C98.0504 3.48835 92.8896 0.896911 87.3375 0.459289C81.7854 0.0216681 76.2823 1.77257 72.0039 5.33794C67.7254 8.90331 65.0109 14.0004 64.4401 19.5404C63.8694 25.0804 65.4877 30.6239 68.9494 34.9867L228.267 226.133L156.843 311.787C141.471 303.303 124.224 298.793 106.667 298.667C85.57 298.667 64.9471 304.923 47.4059 316.643C29.8646 328.364 16.1929 345.023 8.11956 364.514C0.046217 384.005 -2.06614 405.452 2.04962 426.143C6.16538 446.834 16.3244 465.84 31.242 480.758C46.1596 495.676 65.1658 505.835 85.8571 509.95C106.548 514.066 127.996 511.954 147.486 503.881C166.977 495.807 183.636 482.135 195.357 464.594C207.077 447.053 213.333 426.43 213.333 405.333C213.211 381.226 204.839 357.888 189.611 339.2L256 259.456L322.368 339.2C307.159 357.898 298.797 381.231 298.667 405.333C298.667 426.43 304.923 447.053 316.643 464.594C328.364 482.135 345.023 495.807 364.514 503.881C384.005 511.954 405.452 514.066 426.143 509.95C446.834 505.835 465.841 495.676 480.758 480.758C495.676 465.84 505.835 446.834 509.95 426.143C514.066 405.452 511.954 384.005 503.881 364.514C495.807 345.023 482.135 328.364 464.594 316.643C447.053 304.923 426.43 298.667 405.333 298.667ZM106.667 469.333C94.0087 469.333 81.635 465.58 71.1102 458.547C60.5855 451.515 52.3824 441.52 47.5384 429.825C42.6944 418.131 41.427 405.262 43.8965 392.848C46.3659 380.433 52.4613 369.029 61.4119 360.079C70.3624 351.128 81.7662 345.033 94.1809 342.563C106.596 340.094 119.464 341.361 131.158 346.205C142.853 351.049 152.848 359.252 159.881 369.777C166.913 380.302 170.667 392.675 170.667 405.333C170.667 422.307 163.924 438.586 151.922 450.588C139.919 462.591 123.641 469.333 106.667 469.333ZM405.333 469.333C392.675 469.333 380.302 465.58 369.777 458.547C359.252 451.515 351.049 441.52 346.205 429.825C341.361 418.131 340.094 405.262 342.563 392.848C345.033 380.433 351.128 369.029 360.079 360.079C369.029 351.128 380.433 345.033 392.848 342.563C405.262 340.094 418.131 341.361 429.825 346.205C441.52 351.049 451.515 359.252 458.547 369.777C465.58 380.302 469.333 392.675 469.333 405.333C469.333 422.307 462.591 438.586 450.588 450.588C438.586 462.591 422.307 469.333 405.333 469.333Z" fill="black"/>
</g>
<defs>
<clipPath id="clip0_1_112">
<rect width="512" height="512" fill="white"/>
</clipPath>
</defs>
</svg>
