<svg width="512" height="512" viewBox="0 0 512 512" fill="none" xmlns="http://www.w3.org/2000/svg">
<g clip-path="url(#clip0_2_138)">
<path d="M405.333 0H106.667C78.3873 0.0338743 51.2759 11.2828 31.2794 31.2794C11.2828 51.2759 0.0338743 78.3873 0 106.667L0 405.333C0.0338743 433.613 11.2828 460.724 31.2794 480.721C51.2759 500.717 78.3873 511.966 106.667 512H405.333C433.613 511.966 460.724 500.717 480.721 480.721C500.717 460.724 511.966 433.613 512 405.333V106.667C511.966 78.3873 500.717 51.2759 480.721 31.2794C460.724 11.2828 433.613 0.0338743 405.333 0ZM469.333 405.333C469.333 422.307 462.591 438.586 450.588 450.588C438.586 462.591 422.307 469.333 405.333 469.333H106.667C89.6928 469.333 73.4142 462.591 61.4118 450.588C49.4095 438.586 42.6667 422.307 42.6667 405.333V106.667C42.6667 89.6928 49.4095 73.4142 61.4118 61.4118C73.4142 49.4095 89.6928 42.6667 106.667 42.6667H405.333C422.307 42.6667 438.586 49.4095 450.588 61.4118C462.591 73.4142 469.333 89.6928 469.333 106.667V405.333ZM384 192C384 197.658 381.752 203.084 377.752 207.085C373.751 211.086 368.325 213.333 362.667 213.333C357.009 213.333 351.582 211.086 347.582 207.085C343.581 203.084 341.333 197.658 341.333 192C341.333 186.342 339.086 180.916 335.085 176.915C331.084 172.914 325.658 170.667 320 170.667H277.333V341.333H298.667C304.325 341.333 309.751 343.581 313.752 347.582C317.752 351.582 320 357.009 320 362.667C320 368.325 317.752 373.751 313.752 377.752C309.751 381.752 304.325 384 298.667 384H213.333C207.675 384 202.249 381.752 198.248 377.752C194.248 373.751 192 368.325 192 362.667C192 357.009 194.248 351.582 198.248 347.582C202.249 343.581 207.675 341.333 213.333 341.333H234.667V170.667H192C186.342 170.667 180.916 172.914 176.915 176.915C172.914 180.916 170.667 186.342 170.667 192C170.667 197.658 168.419 203.084 164.418 207.085C160.418 211.086 154.991 213.333 149.333 213.333C143.675 213.333 138.249 211.086 134.248 207.085C130.248 203.084 128 197.658 128 192C128 175.026 134.743 158.748 146.745 146.745C158.748 134.743 175.026 128 192 128H320C336.974 128 353.253 134.743 365.255 146.745C377.257 158.748 384 175.026 384 192Z" fill="black"/>
</g>
<defs>
<clipPath id="clip0_2_138">
<rect width="512" height="512" fill="white"/>
</clipPath>
</defs>
</svg>
