<svg width="512" height="512" viewBox="0 0 512 512" fill="none" xmlns="http://www.w3.org/2000/svg">
<g clip-path="url(#clip0_1_108)">
<path d="M512 330.667V341.333C512 353.067 502.4 362.667 490.667 362.667C478.933 362.667 469.333 353.067 469.333 341.333V330.667C469.333 312.96 455.04 298.667 437.333 298.667H405.333V469.333C405.333 481.067 395.733 490.667 384 490.667C372.267 490.667 362.667 481.067 362.667 469.333V298.667H330.667C312.96 298.667 298.667 312.96 298.667 330.667V341.333C298.667 353.067 289.067 362.667 277.333 362.667C265.6 362.667 256 353.067 256 341.333V330.667C256 289.493 289.493 256 330.667 256H437.333C478.507 256 512 289.493 512 330.667ZM277.333 64C312.533 64 341.333 92.8 341.333 128V149.333C341.333 161.067 350.933 170.667 362.667 170.667C374.4 170.667 384 161.067 384 149.333V128C384 69.12 336.213 21.3333 277.333 21.3333H106.667C47.7867 21.3333 0 69.12 0 128V149.333C0 161.067 9.6 170.667 21.3333 170.667C33.0667 170.667 42.6667 161.067 42.6667 149.333V128C42.6667 92.8 71.4667 64 106.667 64H170.667V469.333C170.667 481.067 180.267 490.667 192 490.667C203.733 490.667 213.333 481.067 213.333 469.333V64H277.333Z" fill="black"/>
</g>
<defs>
<clipPath id="clip0_1_108">
<rect width="512" height="512" fill="white"/>
</clipPath>
</defs>
</svg>
