<svg width="513" height="512" viewBox="0 0 513 512" fill="none" xmlns="http://www.w3.org/2000/svg">
<g clip-path="url(#clip0_5_164)">
<path d="M261.41 65.35C261.41 77.38 251.66 87.13 239.63 87.13C227.6 87.13 217.85 77.38 217.85 65.35C217.85 53.32 208.1 43.57 196.07 43.57H152.5V217.84H174.28C186.31 217.84 196.06 227.59 196.06 239.62C196.06 251.65 186.31 261.4 174.28 261.4H87.14C75.11 261.4 65.36 251.65 65.36 239.62C65.36 227.59 75.11 217.84 87.14 217.84H108.92V43.57H65.35C53.32 43.57 43.57 53.32 43.57 65.35C43.57 77.38 33.82 87.13 21.79 87.13C9.76 87.13 0 77.38 0 65.35C0 29.26 29.26 0 65.35 0H196.06C232.15 0 261.41 29.26 261.41 65.35Z" fill="black"/>
<path d="M421.622 313.9C412.042 316.45 406.342 326.27 408.882 335.85C411.432 345.43 421.252 351.13 430.832 348.59C440.412 346.05 446.112 336.22 443.572 326.64C441.032 317.06 431.202 311.35 421.622 313.9Z" fill="black"/>
<path d="M426.23 356.37C415.12 356.37 404.93 348.93 401.95 337.7C400.23 331.21 401.13 324.45 404.5 318.64C407.73 313.06 412.87 309.02 419.01 307.18L419.11 307.13L419.81 306.95C426.28 305.24 433.04 306.15 438.83 309.51C444.63 312.88 448.78 318.31 450.5 324.79C454.05 338.17 446.05 351.95 432.67 355.51C430.52 356.08 428.35 356.35 426.23 356.35V356.37ZM423.43 320.84C417.71 322.38 414.29 328.28 415.81 334.01C417.34 339.75 423.26 343.18 428.99 341.66C434.73 340.13 438.16 334.22 436.64 328.48C435.15 322.86 429.44 319.44 423.82 320.74L423.43 320.84Z" fill="black"/>
<path d="M361.801 278.01C352.221 280.56 346.521 290.38 349.061 299.96C351.611 309.54 361.431 315.24 371.011 312.7C380.591 310.16 386.291 300.33 383.751 290.75C381.211 281.17 371.381 275.46 361.801 278.01Z" fill="black"/>
<path d="M366.36 320.48C361.99 320.48 357.68 319.33 353.8 317.08C348 313.71 343.85 308.29 342.13 301.8C340.41 295.31 341.31 288.55 344.68 282.74C347.91 277.16 353.05 273.12 359.19 271.28L359.29 271.23L359.99 271.05C373.37 267.52 387.13 275.52 390.68 288.89C394.23 302.27 386.23 316.06 372.85 319.61C370.7 320.18 368.52 320.46 366.36 320.46V320.48ZM363.6 284.94C360.83 285.68 358.52 287.46 357.08 289.94C355.64 292.43 355.25 295.33 355.99 298.11C356.73 300.89 358.51 303.22 361 304.66C363.49 306.11 366.39 306.49 369.17 305.75C374.91 304.23 378.34 298.31 376.82 292.57C375.33 286.95 369.62 283.54 363.99 284.83L363.6 284.93V284.94Z" fill="black"/>
<path d="M301.969 313.9C292.389 316.45 286.689 326.27 289.229 335.85C291.779 345.43 301.599 351.13 311.179 348.59C320.759 346.05 326.459 336.22 323.919 326.64C321.379 317.06 311.549 311.35 301.969 313.9Z" fill="black"/>
<path d="M306.589 356.37C295.479 356.37 285.289 348.93 282.309 337.7C280.589 331.21 281.489 324.45 284.859 318.64C287.879 313.44 292.549 309.57 298.149 307.58L298.229 307.5L300.139 306.96C313.529 303.41 327.309 311.41 330.859 324.8C334.409 338.18 326.409 351.96 313.029 355.52C310.879 356.09 308.709 356.36 306.579 356.36L306.589 356.37ZM303.929 320.8L303.819 320.83C298.079 322.36 294.649 328.27 296.169 334.01C297.699 339.75 303.609 343.18 309.349 341.66C315.089 340.13 318.519 334.22 316.999 328.48C315.489 322.77 309.639 319.35 303.929 320.8Z" fill="black"/>
<path d="M301.969 385.69C292.389 388.24 286.689 398.06 289.229 407.64C291.779 417.22 301.599 422.92 311.179 420.38C320.759 417.84 326.459 408.01 323.919 398.43C321.379 388.85 311.549 383.14 301.969 385.69Z" fill="black"/>
<path d="M306.59 428.16C295.48 428.16 285.29 420.72 282.31 409.49C278.76 396.14 286.72 382.38 300.05 378.79L301.13 378.53C314.21 375.61 327.41 383.54 330.87 396.61C334.42 409.99 326.42 423.77 313.04 427.33C310.89 427.9 308.72 428.17 306.6 428.17L306.59 428.16ZM303.74 392.64C298.04 394.2 294.65 400.08 296.17 405.8C297.7 411.54 303.61 414.97 309.35 413.45C315.09 411.92 318.52 406.01 317 400.27C316.26 397.49 314.48 395.16 312 393.72C309.51 392.28 306.61 391.89 303.83 392.62L303.75 392.64H303.74Z" fill="black"/>
<path d="M366.402 217.67C287.152 214.91 220.682 276.92 217.922 356.17C217.862 357.83 217.832 359.5 217.832 361.16C217.922 440.42 282.152 504.65 361.412 504.74C365.452 504.74 369.432 504.48 373.372 504.14C379.582 503.62 384.352 498.41 384.332 492.18L383.952 449.25C383.682 425.68 402.572 406.36 426.142 406.09C437.632 405.96 448.692 410.47 456.822 418.6L458.022 419.8C463.542 425.37 471.532 427.72 479.192 426.03C486.722 424.45 492.932 419.14 495.672 411.95C502.282 394.6 505.432 376.14 504.972 357.58C502.182 282.02 441.952 221.2 366.422 217.68L366.402 217.67ZM473.872 401.93L473.702 401.76C447.672 375.77 405.492 375.8 379.502 401.84C366.902 414.46 359.892 431.61 360.032 449.44L360.322 480.81C294.242 480.51 240.912 426.7 241.212 360.62C241.512 294.54 295.322 241.21 361.402 241.51C362.802 241.51 364.212 241.51 365.622 241.58C428.542 244.54 478.702 295.21 481.022 358.15C481.412 373.03 479.002 387.85 473.902 401.83L473.862 401.91L473.872 401.93Z" fill="black"/>
<path d="M361.41 511.91C321.16 511.86 283.32 496.16 254.86 467.71C226.4 439.25 210.7 401.42 210.66 361.17C210.66 359.42 210.69 357.66 210.75 355.92C212.15 315.68 229.14 278.39 258.58 250.92C288.03 223.45 326.43 209.1 366.65 210.5H366.73C405.06 212.29 441.04 228.29 468.05 255.56C495.06 282.83 510.7 318.96 512.12 357.31C512.62 376.98 509.33 396.19 502.36 414.5C498.74 424.02 490.63 430.96 480.66 433.05C470.61 435.26 460.22 432.2 452.93 424.85L451.76 423.68C445.14 417.05 436 413.27 426.64 413.27C426.51 413.27 426.38 413.27 426.24 413.27C416.76 413.38 407.88 417.17 401.25 423.96C394.62 430.74 391.03 439.7 391.14 449.18L391.52 492.13C391.55 502.07 383.85 510.47 373.99 511.3C370.36 511.61 366.03 511.92 361.42 511.92L361.41 511.91ZM361.29 224.75C326.66 224.75 293.82 237.67 268.37 261.41C241.73 286.26 226.36 320 225.09 356.42C225.04 357.99 225.01 359.59 225.01 361.16C225.1 436.28 286.29 497.48 361.42 497.57C365.48 497.57 369.44 497.28 372.77 497C375.24 496.79 377.17 494.69 377.16 492.21L376.78 449.32C376.63 436.02 381.67 423.45 390.98 413.92C400.29 404.4 412.75 399.07 426.06 398.92C439.39 398.73 452.46 404.09 461.89 413.53L463.08 414.72C466.91 418.59 472.34 420.19 477.63 419.02C482.87 417.92 487.07 414.33 488.94 409.39C495.25 392.83 498.22 375.46 497.77 357.75C496.49 323.09 482.31 290.35 457.85 265.65C433.4 240.96 400.81 226.46 366.1 224.83C364.49 224.77 362.88 224.75 361.28 224.75H361.29ZM367.56 488.01L360.29 487.98C326.42 487.83 294.63 474.49 270.78 450.43C246.93 426.37 233.89 394.46 234.04 360.59C234.19 326.71 247.53 294.93 271.59 271.08C295.51 247.37 327.19 234.34 360.85 234.34C361.1 234.34 361.34 234.34 361.59 234.34C362.99 234.34 364.46 234.34 366 234.42C398.2 235.93 428.46 249.4 451.16 272.33C473.86 295.26 487.02 325.65 488.2 357.9C488.62 373.82 486.08 389.41 480.65 404.3L480.49 404.71L476.29 414.36L468.64 406.83C445.45 383.68 407.74 383.71 384.59 406.9C373.42 418.09 367.09 433.57 367.22 449.38L367.57 488.01H367.56ZM360.88 248.68C331 248.68 302.91 260.24 281.69 281.27C260.35 302.42 248.52 330.61 248.39 360.65C248.25 390.69 259.83 418.99 280.98 440.33C300.41 459.94 325.79 471.51 353.09 473.37L352.87 449.5C352.71 429.87 360.57 410.65 374.43 396.77C400.5 370.66 441.42 368.2 470.29 389.4C472.94 379.29 474.14 368.88 473.86 358.35C472.81 329.78 461.12 302.79 440.96 282.42C420.8 262.05 393.92 250.09 365.29 248.75C363.87 248.68 362.41 248.68 360.88 248.68Z" fill="black"/>
</g>
<defs>
<clipPath id="clip0_5_164">
<rect width="512.17" height="511.91" fill="white"/>
</clipPath>
</defs>
</svg>
