<svg width="512" height="512" viewBox="0 0 512 512" fill="none" xmlns="http://www.w3.org/2000/svg">
<g clip-path="url(#clip0_4_144)">
<path d="M341.33 152.17C341.33 163.97 331.77 173.5 320 173.5H277.33V216.17C277.33 227.97 267.77 237.5 256 237.5C244.23 237.5 234.67 227.96 234.67 216.17V173.5H192C180.22 173.5 170.67 163.96 170.67 152.17C170.67 140.38 180.23 130.84 192 130.84H234.67V88.17C234.67 76.37 244.23 66.84 256 66.84C267.77 66.84 277.33 76.38 277.33 88.17V130.84H320C331.78 130.84 341.33 140.38 341.33 152.17Z" fill="black"/>
<path d="M426.67 0H85.33C38.21 0 0 38.21 0 85.33V219C0 266.13 38.21 304.33 85.33 304.33H426.67C473.8 304.33 512 266.12 512 219V85.33C512 38.2 473.79 0 426.67 0ZM469.34 219C469.34 242.56 450.24 261.67 426.67 261.67H85.33C61.77 261.67 42.66 242.57 42.66 219V85.33C42.66 61.77 61.76 42.66 85.33 42.66H426.67C450.23 42.66 469.34 61.76 469.34 85.33V219Z" fill="black"/>
<path d="M149.33 341.33H85.33C38.21 341.33 0 379.54 0 426.67C0 473.8 38.21 512 85.33 512H149.33C196.46 512 234.66 473.79 234.66 426.67C234.66 379.54 196.45 341.34 149.33 341.34V341.33ZM192 426.66C192 450.22 172.9 469.33 149.33 469.33H85.33C61.77 469.33 42.66 450.23 42.66 426.66C42.66 403.1 61.76 383.99 85.33 383.99H149.33C172.89 383.99 192 403.09 192 426.66Z" fill="black"/>
<path d="M426.67 341.33H362.67C315.54 341.33 277.34 379.54 277.34 426.66C277.34 473.79 315.55 511.99 362.67 511.99H426.67C473.8 511.99 512 473.78 512 426.66C512 379.53 473.79 341.33 426.67 341.33ZM469.34 426.66C469.34 450.22 450.24 469.33 426.67 469.33H362.67C339.11 469.33 320 450.23 320 426.66C320 403.1 339.1 383.99 362.67 383.99H426.67C450.23 383.99 469.34 403.09 469.34 426.66Z" fill="black"/>
</g>
<defs>
<clipPath id="clip0_4_144">
<rect width="512" height="512" fill="white"/>
</clipPath>
</defs>
</svg>
