<svg width="512" height="512" viewBox="0 0 512 512" fill="none" xmlns="http://www.w3.org/2000/svg">
<g clip-path="url(#clip0_1_129)">
<path d="M426.667 148.48H85.3333C38.272 148.48 0 186.752 0 233.813V277.333C0 324.395 38.272 362.667 85.3333 362.667H426.667C473.728 362.667 512 324.395 512 277.333V233.813C512 186.752 473.728 148.48 426.667 148.48ZM469.333 277.333C469.333 300.864 450.197 320 426.667 320H405.333V277.013C405.333 265.216 395.797 255.68 384 255.68C372.203 255.68 362.667 265.216 362.667 277.013V320H320V277.013C320 265.216 310.464 255.68 298.667 255.68C286.869 255.68 277.333 265.216 277.333 277.013V320H234.667V277.013C234.667 265.216 225.131 255.68 213.333 255.68C201.536 255.68 192 265.216 192 277.013V320H149.845V277.013C149.845 265.216 140.309 255.68 128.512 255.68C116.715 255.68 107.179 265.216 107.179 277.013V320H85.3333C61.8027 320 42.6667 300.864 42.6667 277.333V233.813C42.6667 210.283 61.8027 191.147 85.3333 191.147H426.667C450.197 191.147 469.333 210.283 469.333 233.813V277.333Z" fill="black"/>
</g>
<defs>
<clipPath id="clip0_1_129">
<rect width="512" height="512" fill="white"/>
</clipPath>
</defs>
</svg>
