<svg width="512" height="512" viewBox="0 0 512 512" fill="none" xmlns="http://www.w3.org/2000/svg">
<g clip-path="url(#clip0_6_204)">
<path d="M108.395 0H131.392V22.8053H152.597V0H175.595V68.992H152.597V45.9947H131.605V68.992H108.395V0ZM205.995 22.9973H185.707V0H249.408V22.9973H229.013V68.992H205.995V22.9973ZM259.499 0H283.605L298.411 24.2987L313.195 0H337.301V68.992H314.304V34.7947L298.197 59.584L282.091 34.7947V68.992H259.499V0ZM348.693 0H371.691V46.208H404.288V69.0133H348.693V0Z" fill="black"/>
<path d="M74.6016 100.608L107.604 470.997L255.7 512L404.394 470.805L437.396 100.608H74.6016ZM141.994 176.299H255.786V221.696H191.786L195.988 268.203H255.786V313.493H154.388L141.994 176.299ZM255.999 313.6H311.807L306.516 372.608L255.999 386.155V313.6ZM375.999 446.997L255.999 480.491V433.6L162.794 407.595L156.394 336.299H202.004L205.204 372.608L255.914 386.176L255.807 386.197V433.387L255.999 433.344L348.799 407.595L361.3 268.203H255.999V221.696H365.396L369.599 176.299H255.999V131.008H404.308L375.999 446.997Z" fill="black"/>
<path d="M256 268.203H361.301L348.8 407.595L256 433.344V386.155L306.496 372.608L311.808 313.6H256V268.203Z" fill="black"/>
<path d="M369.6 176.299L365.397 221.696H256V176.299H369.6Z" fill="black"/>
<path d="M255.806 176.299V221.696H255.998V176.299H255.806ZM255.806 268.203V313.493H255.998V268.203H255.806ZM255.892 386.176L255.785 386.197V433.387L255.998 433.344V386.197L255.892 386.176Z" fill="black"/>
<path d="M255.806 176.299V221.696H365.396L369.599 176.299H255.806ZM255.806 268.203V313.6H311.806L306.516 372.608L255.998 386.155L255.892 386.176L255.785 386.197V433.387L255.998 433.344L348.799 407.595L361.3 268.203H255.806Z" fill="black"/>
</g>
<defs>
<clipPath id="clip0_6_204">
<rect width="512" height="512" fill="white"/>
</clipPath>
</defs>
</svg>
