<svg width="512" height="512" viewBox="0 0 512 512" fill="none" xmlns="http://www.w3.org/2000/svg">
<g clip-path="url(#clip0_5_195)">
<path d="M21.33 117.33H490.67C502.45 117.33 512 107.78 512 96C512 84.22 502.45 74.67 490.67 74.67H21.33C9.55 74.67 0 84.22 0 96C0 107.78 9.55 117.33 21.33 117.33Z" fill="black"/>
<path d="M490.672 181.33H192.002C180.222 181.33 170.672 190.88 170.672 202.66C170.672 214.44 180.222 223.99 192.002 223.99H490.672C502.452 223.99 512.002 214.44 512.002 202.66C512.002 190.88 502.452 181.33 490.672 181.33Z" fill="black"/>
<path d="M490.67 394.67H21.33C9.55 394.67 0 404.22 0 416C0 427.78 9.55 437.33 21.33 437.33H490.67C502.45 437.33 512 427.78 512 416C512 404.22 502.45 394.67 490.67 394.67Z" fill="black"/>
<path d="M490.672 288H192.002C180.222 288 170.672 297.55 170.672 309.33C170.672 321.11 180.222 330.66 192.002 330.66H490.672C502.452 330.66 512.002 321.11 512.002 309.33C512.002 297.55 502.452 288 490.672 288Z" fill="black"/>
<path d="M36.42 335.89L99.87 272.44C108.93 263.35 108.93 248.64 99.87 239.54L36.42 176.09C28.09 167.76 14.58 167.76 6.25 176.09C2.24 180.12 0 185.55 0 191.21V320.79C0 332.57 9.53 342.13 21.32 342.14C26.98 342.14 32.41 339.9 36.42 335.89Z" fill="black"/>
</g>
<defs>
<clipPath id="clip0_5_195">
<rect width="512" height="512" fill="white"/>
</clipPath>
</defs>
</svg>
