<svg width="512" height="512" viewBox="0 0 512 512" fill="none" xmlns="http://www.w3.org/2000/svg">
<g clip-path="url(#clip0_1_58)">
<path d="M167.147 344.96C162.24 340.053 157.632 334.677 153.472 329.003C146.539 319.488 148.63 306.133 158.166 299.2C167.68 292.267 181.014 294.357 187.968 303.872C190.72 307.669 193.814 311.317 197.291 314.773C214.422 331.904 237.184 341.333 261.398 341.333C285.611 341.333 308.395 331.904 325.504 314.773L442.838 197.44C478.187 162.091 478.187 104.555 442.838 69.2053C407.488 33.856 349.952 33.856 314.603 69.2053L292.032 91.776C283.691 100.117 270.208 100.117 261.867 91.776C253.526 83.4346 253.526 69.952 261.867 61.6106L284.438 39.04C336.427 -12.9707 421.014 -12.9707 473.003 39.04C524.992 91.0293 524.992 175.616 473.003 227.605L355.67 344.939C330.496 370.133 297.003 384 261.398 384C225.792 384 192.299 370.133 167.147 344.96ZM133.398 512C169.024 512 202.496 498.133 227.67 472.939L250.24 450.368C258.582 442.048 258.582 428.544 250.24 420.203C241.92 411.861 228.416 411.883 220.075 420.203L197.483 442.773C180.352 459.904 157.59 469.333 133.376 469.333C109.163 469.333 86.4005 459.904 69.2698 442.773C52.1391 425.643 42.7098 402.88 42.7098 378.667C42.7098 354.453 52.1391 331.669 69.2698 314.56L186.603 197.227C203.734 180.096 226.496 170.667 250.71 170.667C274.923 170.667 297.707 180.096 314.816 197.227C318.23 200.661 321.344 204.309 324.118 208.107C331.03 217.643 344.363 219.776 353.92 212.821C363.456 205.888 365.568 192.555 358.635 183.019C354.582 177.429 349.995 172.075 345.003 167.083C319.808 141.867 286.315 128 250.71 128C215.104 128 181.611 141.867 156.438 167.061L39.1258 284.395C13.9311 309.568 0.0644531 343.061 0.0644531 378.667C0.0644531 414.272 13.9311 447.765 39.1258 472.939C64.2991 498.133 97.7711 512 133.398 512Z" fill="black"/>
</g>
<defs>
<clipPath id="clip0_1_58">
<rect width="512" height="512" fill="white"/>
</clipPath>
</defs>
</svg>
