<svg width="512" height="512" viewBox="0 0 512 512" fill="none" xmlns="http://www.w3.org/2000/svg">
<g clip-path="url(#clip0_2_136)">
<path d="M426.667 0H149.333C143.675 0 138.249 2.24761 134.248 6.24839C130.248 10.2492 128 15.6754 128 21.3333C128 26.9913 130.248 32.4175 134.248 36.4183C138.249 40.4191 143.675 42.6667 149.333 42.6667H263.552L205.376 469.333H85.3333C79.6754 469.333 74.2492 471.581 70.2484 475.582C66.2476 479.582 64 485.009 64 490.667C64 496.325 66.2476 501.751 70.2484 505.752C74.2492 509.752 79.6754 512 85.3333 512H362.667C368.325 512 373.751 509.752 377.752 505.752C381.752 501.751 384 496.325 384 490.667C384 485.009 381.752 479.582 377.752 475.582C373.751 471.581 368.325 469.333 362.667 469.333H248.448L306.624 42.6667H426.667C432.325 42.6667 437.751 40.4191 441.752 36.4183C445.752 32.4175 448 26.9913 448 21.3333C448 15.6754 445.752 10.2492 441.752 6.24839C437.751 2.24761 432.325 0 426.667 0Z" fill="black"/>
</g>
<defs>
<clipPath id="clip0_2_136">
<rect width="512" height="512" fill="white"/>
</clipPath>
</defs>
</svg>
