<svg width="512" height="512" viewBox="0 0 512 512" fill="none" xmlns="http://www.w3.org/2000/svg">
<g clip-path="url(#clip0_1_83)">
<path d="M512 21.3333C512 33.1307 502.443 42.6667 490.667 42.6667H213.333C201.557 42.6667 192 33.1307 192 21.3333C192 9.536 201.557 0 213.333 0H490.667C502.443 0 512 9.536 512 21.3333ZM426.667 106.667H213.333C201.557 106.667 192 116.203 192 128C192 139.797 201.557 149.333 213.333 149.333H426.667C438.443 149.333 448 139.797 448 128C448 116.203 438.443 106.667 426.667 106.667ZM362.667 213.333H213.333C201.557 213.333 192 222.869 192 234.667C192 246.464 201.557 256 213.333 256H362.667C374.443 256 384 246.464 384 234.667C384 222.869 374.443 213.333 362.667 213.333ZM298.667 320H213.333C201.557 320 192 329.536 192 341.333C192 353.131 201.557 362.667 213.333 362.667H298.667C310.443 362.667 320 353.131 320 341.333C320 329.536 310.443 320 298.667 320ZM194.581 411.584C186.24 403.243 172.757 403.243 164.416 411.584L128 448V21.3333C128 9.536 118.443 0 106.667 0C94.8906 0 85.3333 9.536 85.3333 21.3333V448L48.8959 411.563C40.5546 403.221 27.0719 403.221 18.7306 411.563C10.3893 419.904 10.3893 433.387 18.7306 441.728L76.4799 499.477C84.7999 507.797 95.7226 511.957 106.667 511.957C117.611 511.957 128.512 507.797 136.832 499.477L194.581 441.728C202.923 433.387 202.923 419.925 194.581 411.584Z" fill="black"/>
</g>
<defs>
<clipPath id="clip0_1_83">
<rect width="512" height="512" fill="white"/>
</clipPath>
</defs>
</svg>
