<svg width="512" height="512" viewBox="0 0 512 512" fill="none" xmlns="http://www.w3.org/2000/svg">
<g clip-path="url(#clip0_5_187)">
<path d="M191.998 117.33H490.668C502.448 117.33 511.998 107.78 511.998 96C511.998 84.22 502.448 74.67 490.668 74.67H191.998C180.218 74.67 170.668 84.22 170.668 96C170.668 107.78 180.218 117.33 191.998 117.33Z" fill="black"/>
<path d="M490.668 181.33H191.998C180.218 181.33 170.668 190.88 170.668 202.66C170.668 214.44 180.218 223.99 191.998 223.99H490.668C502.448 223.99 511.998 214.44 511.998 202.66C511.998 190.88 502.448 181.33 490.668 181.33Z" fill="black"/>
<path d="M490.668 394.67H191.998C180.218 394.67 170.668 404.22 170.668 416C170.668 427.78 180.218 437.33 191.998 437.33H490.668C502.448 437.33 511.998 427.78 511.998 416C511.998 404.22 502.448 394.67 490.668 394.67Z" fill="black"/>
<path d="M490.668 288H191.998C180.218 288 170.668 297.55 170.668 309.33C170.668 321.11 180.218 330.66 191.998 330.66H490.668C502.448 330.66 511.998 321.11 511.998 309.33C511.998 297.55 502.448 288 490.668 288Z" fill="black"/>
<path d="M70.2389 176.11L6.79891 239.55C-2.26109 248.64 -2.26109 263.35 6.79891 272.45L70.2489 335.9C78.5789 344.23 92.0889 344.23 100.419 335.9C104.419 331.9 106.669 326.46 106.669 320.8V191.21C106.669 179.43 97.1389 169.87 85.3489 169.86C79.6889 169.86 74.2589 172.1 70.2489 176.11H70.2389Z" fill="black"/>
</g>
<defs>
<clipPath id="clip0_5_187">
<rect width="512" height="512" fill="white"/>
</clipPath>
</defs>
</svg>
