<svg width="512" height="512" viewBox="0 0 512 512" fill="none" xmlns="http://www.w3.org/2000/svg">
<g clip-path="url(#clip0_2_140)">
<path d="M490.667 0H181.333C81.344 0 0 81.344 0 181.333C0 281.323 81.344 362.667 181.333 362.667H298.667V490.667C298.667 502.464 308.224 512 320 512C331.776 512 341.333 502.464 341.333 490.667V42.6667H405.333V490.667C405.333 502.464 414.891 512 426.667 512C438.443 512 448 502.464 448 490.667V42.6667H490.667C502.443 42.6667 512 33.1307 512 21.3333C512 9.536 502.443 0 490.667 0ZM298.667 320H181.333C104.875 320 42.6667 257.792 42.6667 181.333C42.6667 104.875 104.875 42.6667 181.333 42.6667H298.667V320Z" fill="black"/>
</g>
<defs>
<clipPath id="clip0_2_140">
<rect width="512" height="512" fill="white"/>
</clipPath>
</defs>
</svg>
