<svg width="512" height="512" viewBox="0 0 512 512" fill="none" xmlns="http://www.w3.org/2000/svg">
<g clip-path="url(#clip0_6_202)">
<path d="M64 337.707C61.6533 337.707 59.3067 337.28 56.96 336.427C32.4267 327.893 13.44 308.907 4.90667 284.373C1.06667 273.28 6.82667 261.12 17.92 257.067C29.0133 253.227 41.1733 258.987 45.2267 270.08C49.4933 282.027 59.0933 291.84 71.2533 296.107C82.3467 299.947 88.1067 312.107 84.2667 323.413C81.0667 332.16 72.96 337.707 64.2133 337.707H64ZM213.333 320C213.333 308.267 203.733 298.667 192 298.667H149.333C137.6 298.667 128 308.267 128 320C128 331.733 137.6 341.333 149.333 341.333H192C203.733 341.333 213.333 331.733 213.333 320ZM284.373 336.427C308.907 327.893 327.893 308.907 336.427 284.373C340.267 273.28 334.507 261.12 323.413 257.067C312.32 253.227 300.16 258.987 296.107 270.08C291.84 282.027 282.24 291.84 270.08 296.107C258.987 299.947 253.227 312.107 257.067 323.413C260.267 332.16 268.373 337.707 277.12 337.707C279.467 337.707 281.813 337.28 284.16 336.427H284.373ZM341.333 192V149.333C341.333 137.6 331.733 128 320 128C308.267 128 298.667 137.6 298.667 149.333V192C298.667 203.733 308.267 213.333 320 213.333C331.733 213.333 341.333 203.733 341.333 192ZM213.333 21.3333C213.333 9.6 203.733 0 192 0H149.333C137.6 0 128 9.6 128 21.3333C128 33.0667 137.6 42.6667 149.333 42.6667H192C203.733 42.6667 213.333 33.0667 213.333 21.3333ZM42.6667 192V149.333C42.6667 137.6 33.0667 128 21.3333 128C9.6 128 0 137.6 0 149.333V192C0 203.733 9.6 213.333 21.3333 213.333C33.0667 213.333 42.6667 203.733 42.6667 192ZM512 405.333V277.333C512 218.453 464.213 170.667 405.333 170.667C393.6 170.667 384 180.267 384 192V256C384 326.613 326.613 384 256 384H192C180.267 384 170.667 393.6 170.667 405.333C170.667 464.213 218.453 512 277.333 512H405.333C464.213 512 512 464.213 512 405.333ZM45.0133 71.04C49.28 59.0933 58.88 49.28 71.04 45.0133C82.1333 41.1733 87.8933 29.0133 84.0533 17.7067C80.2133 6.82667 68.0533 1.06667 56.96 4.90667C32.4267 13.44 13.44 32.4267 4.90667 56.96C1.06667 68.0533 6.82667 80.2133 17.92 84.2667C20.2667 85.12 22.6133 85.5467 24.96 85.5467C33.7067 85.5467 42.0267 80 45.0133 71.2533V71.04ZM323.413 84.0533C334.507 80.2133 340.267 68.0533 336.427 56.7467C327.893 32.2133 308.907 13.2267 284.373 4.69333C273.28 0.853333 261.12 6.61333 257.067 17.7067C253.227 28.8 258.987 40.96 270.08 45.0133C282.027 49.28 291.84 58.88 296.107 71.04C299.307 79.7867 307.413 85.3333 316.16 85.3333C318.507 85.3333 320.853 84.9067 323.2 84.0533H323.413Z" fill="black"/>
</g>
<defs>
<clipPath id="clip0_6_202">
<rect width="512" height="512" fill="white"/>
</clipPath>
</defs>
</svg>
