<svg width="512" height="512" viewBox="0 0 512 512" fill="none" xmlns="http://www.w3.org/2000/svg">
<g clip-path="url(#clip0_1_125)">
<path d="M360.533 314.091C364.534 318.09 369.959 320.337 375.616 320.337C381.273 320.337 386.698 318.09 390.699 314.091L496.277 208.491C501.231 203.538 505.161 197.658 507.842 191.186C510.523 184.715 511.903 177.778 511.903 170.773C511.903 163.768 510.523 156.832 507.842 150.36C505.161 143.889 501.231 138.009 496.277 133.056L390.677 27.4773C386.621 23.7989 381.304 21.8214 375.83 21.9542C370.355 22.0871 365.141 24.3201 361.268 28.191C357.394 32.0619 355.157 37.2742 355.021 42.7487C354.884 48.2231 356.858 53.5406 360.533 57.6L452.267 149.333H106.667C78.3769 149.333 51.2458 160.571 31.2419 180.575C11.2381 200.579 0 227.71 0 256L0 405.333C0.0338743 433.613 11.2828 460.724 31.2794 480.721C51.2759 500.717 78.3873 511.966 106.667 512H405.333C410.991 512 416.418 509.752 420.418 505.752C424.419 501.751 426.667 496.325 426.667 490.667C426.667 485.009 424.419 479.582 420.418 475.582C416.418 471.581 410.991 469.333 405.333 469.333H106.667C89.6928 469.333 73.4142 462.59 61.4118 450.588C49.4095 438.586 42.6667 422.307 42.6667 405.333V256C42.6667 239.026 49.4095 222.747 61.4118 210.745C73.4142 198.743 89.6928 192 106.667 192H452.523L360.533 283.925C356.534 287.926 354.287 293.351 354.287 299.008C354.287 304.665 356.534 310.09 360.533 314.091Z" fill="black"/>
</g>
<defs>
<clipPath id="clip0_1_125">
<rect width="512" height="512" fill="white"/>
</clipPath>
</defs>
</svg>
