<svg width="512" height="512" viewBox="0 0 512 512" fill="none" xmlns="http://www.w3.org/2000/svg">
<g clip-path="url(#clip0_5_149)">
<path d="M264.831 234.667L328.832 298.667H490.666C502.442 298.667 512 308.224 512 320C512 331.776 502.442 341.333 490.666 341.333H371.498L435.498 405.333H490.666C502.442 405.333 512 414.891 512 426.667C512 438.443 502.442 448 490.666 448H478.165L505.749 475.584C514.09 483.925 514.09 497.408 505.749 505.749C501.589 509.909 496.128 512 490.666 512C485.205 512 479.744 509.909 475.584 505.749L6.25014 36.416C-2.09119 28.0747 -2.09119 14.592 6.25014 6.25066C14.5915 -2.09067 28.0741 -2.09067 36.4155 6.25066L115.498 85.3333H490.666C502.442 85.3333 512 94.8907 512 106.667C512 118.443 502.442 128 490.666 128H158.165L222.165 192H490.666C502.442 192 512 201.557 512 213.333C512 225.109 502.442 234.667 490.666 234.667H264.831ZM320 405.333H21.3328C9.55681 405.333 -0.000526269 414.891 -0.000526269 426.667C-0.000526269 438.443 9.55681 448 21.3328 448H320C331.776 448 341.333 438.443 341.333 426.667C341.333 414.891 331.776 405.333 320 405.333ZM21.3328 341.333H213.333C225.109 341.333 234.666 331.776 234.666 320C234.666 308.224 225.109 298.667 213.333 298.667H21.3328C9.55681 298.667 -0.000526269 308.224 -0.000526269 320C-0.000526269 331.776 9.55681 341.333 21.3328 341.333ZM21.3328 234.667H106.666C118.442 234.667 127.999 225.109 127.999 213.333C127.999 201.557 118.442 192 106.666 192H21.3328C9.55681 192 -0.000526269 201.557 -0.000526269 213.333C-0.000526269 225.109 9.55681 234.667 21.3328 234.667Z" fill="black"/>
</g>
<defs>
<clipPath id="clip0_5_149">
<rect width="512" height="512" fill="white"/>
</clipPath>
</defs>
</svg>
