<svg width="512" height="512" viewBox="0 0 512 512" fill="none" xmlns="http://www.w3.org/2000/svg">
<g clip-path="url(#clip0_2_134)">
<path d="M512 256C512 267.797 502.443 277.333 490.667 277.333H21.3333C9.55733 277.333 0 267.797 0 256C0 244.203 9.55733 234.667 21.3333 234.667H108.395C68.6507 213.269 42.6667 171.307 42.6667 124.779C42.6667 55.9787 98.6453 0 167.424 0H343.104C412.693 0 469.333 56.6187 469.333 126.229V149.333C469.333 161.131 459.776 170.667 448 170.667C436.224 170.667 426.667 161.131 426.667 149.333V126.229C426.667 80.1493 389.184 42.6667 343.104 42.6667H167.424C122.155 42.6667 85.3333 79.5093 85.3333 124.779C85.3333 161.728 110.229 194.325 145.92 204.011L258.837 234.688H490.667C502.443 234.688 512 244.224 512 256.021V256ZM427.883 322.347C417.323 327.552 412.992 340.352 418.197 350.933C423.723 362.112 426.645 374.677 426.645 387.221C426.645 432.491 389.824 469.333 344.555 469.333H168.896C122.816 469.333 85.3333 431.851 85.3333 385.771V362.667C85.3333 350.869 75.776 341.333 64 341.333C52.224 341.333 42.6667 350.869 42.6667 362.667V385.771C42.6667 455.381 99.2853 512 168.896 512H344.576C413.376 512 469.333 456.021 469.333 387.221C469.333 368.149 464.896 349.077 456.448 332.011C451.221 321.472 438.443 317.099 427.883 322.347Z" fill="black"/>
</g>
<defs>
<clipPath id="clip0_2_134">
<rect width="512" height="512" fill="white"/>
</clipPath>
</defs>
</svg>
