<svg width="512" height="512" viewBox="0 0 512 512" fill="none" xmlns="http://www.w3.org/2000/svg">
<g clip-path="url(#clip0_2_131)">
<path d="M256 426.667C301.248 426.616 344.628 408.619 376.624 376.623C408.619 344.628 426.616 301.248 426.667 256V21.3333C426.667 15.6754 424.419 10.2492 420.418 6.24839C416.418 2.24761 410.991 0 405.334 0C399.676 0 394.249 2.24761 390.249 6.24839C386.248 10.2492 384 15.6754 384 21.3333V256C384 289.948 370.515 322.505 346.51 346.51C322.505 370.514 289.948 384 256 384C222.052 384 189.495 370.514 165.491 346.51C141.486 322.505 128 289.948 128 256V21.3333C128 15.6754 125.753 10.2492 121.752 6.24839C117.751 2.24761 112.325 0 106.667 0C101.009 0 95.5827 2.24761 91.5819 6.24839C87.5811 10.2492 85.3335 15.6754 85.3335 21.3333V256C85.3843 301.248 103.382 344.628 135.377 376.623C167.372 408.619 210.752 426.616 256 426.667Z" fill="black"/>
<path d="M490.667 469.333H21.3333C15.6754 469.333 10.2492 471.581 6.24839 475.582C2.24761 479.582 0 485.009 0 490.667C0 496.325 2.24761 501.751 6.24839 505.752C10.2492 509.752 15.6754 512 21.3333 512H490.667C496.325 512 501.751 509.752 505.752 505.752C509.752 501.751 512 496.325 512 490.667C512 485.009 509.752 479.582 505.752 475.582C501.751 471.581 496.325 469.333 490.667 469.333Z" fill="black"/>
</g>
<defs>
<clipPath id="clip0_2_131">
<rect width="512" height="512" fill="white"/>
</clipPath>
</defs>
</svg>
