<svg width="512" height="512" viewBox="0 0 512 512" fill="none" xmlns="http://www.w3.org/2000/svg">
<g clip-path="url(#clip0_1_127)">
<path d="M151.467 314.091C147.466 318.09 142.041 320.337 136.384 320.337C130.727 320.337 125.302 318.09 121.301 314.091L15.7226 208.491C10.7687 203.538 6.83895 197.658 4.15782 191.186C1.47669 184.715 0.0967051 177.778 0.0967051 170.773C0.0967051 163.768 1.47669 156.832 4.15782 150.36C6.83895 143.889 10.7687 138.009 15.7226 133.056L121.323 27.4773C125.379 23.7989 130.696 21.8214 136.17 21.9542C141.645 22.0871 146.859 24.3201 150.732 28.191C154.606 32.0619 156.843 37.2742 156.979 42.7487C157.116 48.2231 155.142 53.5406 151.467 57.6L59.7333 149.333H405.333C433.623 149.333 460.754 160.571 480.758 180.575C500.762 200.579 512 227.71 512 256V405.333C511.966 433.613 500.717 460.724 480.721 480.721C460.724 500.717 433.613 511.966 405.333 512H106.667C101.009 512 95.5825 509.752 91.5817 505.752C87.5809 501.751 85.3333 496.325 85.3333 490.667C85.3333 485.009 87.5809 479.582 91.5817 475.582C95.5825 471.581 101.009 469.333 106.667 469.333H405.333C422.307 469.333 438.586 462.59 450.588 450.588C462.59 438.586 469.333 422.307 469.333 405.333V256C469.333 239.026 462.59 222.747 450.588 210.745C438.586 198.743 422.307 192 405.333 192H59.4773L151.467 283.925C155.466 287.926 157.713 293.351 157.713 299.008C157.713 304.665 155.466 310.09 151.467 314.091Z" fill="black"/>
</g>
<defs>
<clipPath id="clip0_1_127">
<rect width="512" height="512" fill="white" transform="matrix(-1 0 0 1 512 0)"/>
</clipPath>
</defs>
</svg>
