<svg width="512" height="512" viewBox="0 0 512 512" fill="none" xmlns="http://www.w3.org/2000/svg">
<g clip-path="url(#clip0_7_212)">
<path d="M264.83 198.92L328.83 262.92H490.66C502.44 262.92 511.99 272.48 511.99 284.25C511.99 296.02 502.43 305.58 490.66 305.58H371.49L435.49 369.58H490.66C502.44 369.58 511.99 379.14 511.99 390.91C511.99 402.68 502.43 412.24 490.66 412.24H478.16L505.74 439.82C514.08 448.16 514.08 461.64 505.74 469.99C501.58 474.15 496.12 476.24 490.66 476.24C485.2 476.24 479.74 474.15 475.58 469.99L75.5704 72.17C67.2304 63.83 67.2304 50.35 75.5704 42C83.9104 33.66 97.3904 33.66 105.74 42L115.49 49.58H490.66C502.44 49.58 511.99 59.14 511.99 70.91C511.99 82.68 502.43 92.24 490.66 92.24H158.16L222.16 156.24H490.66C502.44 156.24 511.99 165.8 511.99 177.57C511.99 189.34 502.43 198.9 490.66 198.9H264.83V198.92Z" fill="black"/>
<path d="M182.11 375.86C173.77 367.52 160.29 367.52 151.94 375.86L115.52 412.28V152.4C115.52 140.6 105.96 131.07 94.1901 131.07C82.4201 131.07 72.8601 140.61 72.8601 152.4V412.27L36.4201 375.83C28.0801 367.49 14.6001 367.49 6.25012 375.83C-2.08988 384.17 -2.08988 397.65 6.25012 406L64.0001 463.75C72.3201 472.07 83.2401 476.23 94.1901 476.23C105.14 476.23 116.04 472.07 124.36 463.75L182.11 406C190.45 397.66 190.45 384.18 182.11 375.83V375.85V375.86Z" fill="black"/>
</g>
<defs>
<clipPath id="clip0_7_212">
<rect width="512" height="512" fill="white"/>
</clipPath>
</defs>
</svg>
